PathFileType	4	(X/Y/Z)	C:/Users/beibeiliu/ov580/test_trc/User3\sequence.28_training_dense_left.trc
DataRate	CameraRate	NumFrames	NumMarkers	Units	OrigDataRate	OrigDataStartFrame	OrigNumFrames
120	120	21	19	mm	120	54	106
Frame#	Time	ThumbCMC			ThumbMCP			ThumbIP			ThumbTip			IndexMCP			IndexPIP			IndexTip			MiddleMCP			MiddlePIP			MiddleTip			RingMCP			RingPIP			RingTip			PinkyMCP			PinkyPIP			PinkyTip			BackHand1			BackHand2			BackHand3	
		X0	Y0	Z0	X1	Y1	Z1	X2	Y2	Z2	X3	Y3	Z3	X4	Y4	Z4	X5	Y5	Z5	X6	Y6	Z6	X7	Y7	Z7	X8	Y8	Z8	X9	Y9	Z9	X10	Y10	Z10	X11	Y11	Z11	X12	Y12	Z12	X13	Y13	Z13	X14	Y14	Z14	X15	Y15	Z15	X16	Y16	Z16	X17	Y17	Z17	X18	Y18	Z18	
53	0.441667	-118.137	-34.5661	6.61389	-102.585	-29.7848	-20.5346	-87.0916	-27.5921	-46.6579	-77.8984	-29.8835	-62.1359	-138.765	-35.849	-72.7562	-135.064	-41.1039	-98.3632	-133.169	-42.1714	-119.892	-154.458	-35.4559	-80.3825	-152.941	-39.7146	-104.396	-150.552	-42.0487	-132.751	-181.322	-42.2221	-67.6435	-189.534	-49.2373	-86.7268	-194.726	-54.2936	-110.106	-196.324	-46.658	-49.5287	-200.58	-54.3061	-70.0787	-208.103	-56.5038	-89.3563	-178.83	-18.9944	-14.3457	-175.944	-14.3467	11.8435	-141.978	-16.22	-10.8615	
54	0.45	-118.499	-32.4686	3.16771	-103.618	-30.0152	-16.7631	-86.7334	-27.254	-43.5533	-76.4181	-29.3569	-59.7343	-136.67	-35.7485	-73.3821	-131.961	-40.3155	-100.619	-129.972	-41.7862	-119.791	-157.231	-34.3402	-79.0217	-149.609	-40.5983	-104.633	-144.767	-41.755	-133.314	-184.183	-41.6088	-65.7169	-190.649	-48.1662	-89.7091	-192.917	-53.5881	-112.138	-196.494	-46.4432	-52.8693	-200.658	-52.7216	-70.4232	-205.775	-56.4052	-90.9572	-177.973	-18.4072	-17.5881	-177.594	-15.3314	12.7837	-141.99	-17.2455	-8.82585	
55	0.458333	-120.635	-32.8449	5.22147	-102.237	-27.5442	-18.5109	-90.3772	-26.3777	-42.9938	-73.432	-24.5379	-60.015	-137.816	-30.3367	-70.6166	-133.55	-34.6971	-97.3461	-131.267	-33.919	-120.83	-154.419	-28.6816	-77.3882	-148.532	-32.2434	-102.84	-147.978	-32.7725	-129.009	-180.533	-34.7037	-64.1642	-189.958	-40.256	-91.1643	-194.312	-44.1284	-112.321	-198.25	-40.6173	-50.6548	-199.922	-45.9009	-67.8818	-210.618	-48.777	-92.8719	-174.322	-16.9942	-15.6243	-173.403	-12.6717	11.3717	-142.674	-12.6551	-4.7174	
56	0.466667	-120.094	-29.4199	2.0821	-102.996	-24.458	-19.8526	-89.9287	-21.5835	-46.0569	-78.2996	-22.6009	-61.5682	-139.615	-23.2876	-73.5654	-136.217	-26.5555	-97.6624	-135.011	-25.4867	-120.236	-158.952	-20.7861	-78.9099	-156.996	-23.8773	-104.354	-155.94	-22.7715	-133.577	-185.517	-27.6892	-62.7891	-195.447	-31.7293	-89.54	-199.761	-34.5243	-114.452	-199.09	-33.8477	-45.9468	-205.112	-38.0002	-65.3394	-216.674	-39.7747	-88.9734	-180.35	-11.393	-17.4519	-176.602	-8.12693	16.2319	-142.554	-11.8755	-8.37888	
57	0.475	-124.832	-29.0479	2.16913	-111.254	-25.5083	-22.4684	-101.908	-24.0554	-53.0199	-91.2467	-24.9319	-70.5455	-148.464	-22.4535	-78.0995	-150.12	-25.2799	-101.358	-149.205	-26.5924	-126.036	-169.46	-17.625	-79.2145	-168.458	-22.0419	-100.845	-168.176	-24.3231	-136.189	-194.661	-23.5314	-66.4133	-202.671	-26.8858	-87.4673	-211.349	-32.9727	-108.667	-208.581	-29.2474	-44.8865	-218.939	-33.8254	-65.8167	-228.148	-35.6456	-84.1725	-183.772	-9.23409	-13.6363	-174.379	-4.46299	13.7826	-147.737	-7.53867	-7.58683	
58	0.483333	-125.654	-27.3121	-1.61172	-117.819	-29.7759	-27.8364	-107.655	-31.9343	-54.0733	-98.8856	-35.3079	-76.2035	-158.017	-37.517	-76.7846	-159.472	-47.4689	-99.1589	-161.939	-55.1714	-126.641	-179.238	-35.8734	-77.4897	-178.46	-48.3777	-104.664	-178.312	-56.3132	-133.09	-202.434	-38.0251	-61.4947	-212.17	-49.7669	-83.6797	-219.171	-60.7984	-102.615	-215.935	-40.7659	-42.9688	-221.962	-50.0252	-60.1814	-233.379	-58.9681	-80.8562	-186.572	-13.2729	-20.1904	-181.484	-4.46425	11.381	-155.058	-9.29008	-14.296	
59	0.491667	-130.337	-20.0335	-2.06547	-122.428	-27.2641	-28.5379	-113.506	-34.1743	-54.7872	-105.589	-41.217	-75.709	-155.812	-60.826	-74.3926	-151.728	-76.7098	-91.8171	-155.636	-88.0134	-107.267	-178.722	-65.2658	-73.0571	-172.791	-79.8985	-88.2688	-173.319	-97.7199	-112.914	-199.649	-69.6945	-55.8514	-200.729	-87.5973	-71.7356	-207.777	-106.504	-89.1227	-211.318	-66.7008	-33.1781	-216.161	-85.6535	-51.1251	-219.388	-98.0245	-63.5814	-197.418	-25.3123	-15.5686	-193.188	-9.54333	6.88271	-160.43	-12.5876	-18.5735	
60	0.5	-143.436	-3.88311	-3.83214	-133.427	-11.7823	-28.2108	-120.495	-19.3915	-58.2447	-111.936	-24.3715	-73.7028	-149.909	-61.7319	-61.5093	-140.062	-80.2067	-76.182	-134.344	-99.75	-94.8194	-161.221	-75.3917	-61.7193	-152.129	-92.566	-72.1708	-139.307	-110.865	-97.3609	-179.852	-88.0197	-41.7578	-173.821	-108.299	-51.5104	-167.329	-125.846	-64.8215	-191.292	-86.8624	-22.7113	-188.693	-106.74	-32.0224	-188.537	-122.696	-44.9317	-197.336	-42.2204	-16.0814	-201.312	-19.3433	8.8315	-176.237	-17.0909	-15.6179	
61	0.508333	-160.499	7.09993	-7.06988	-147.141	5.37325	-30.7059	-132.982	3.00781	-56.3129	-121.437	2.36938	-76.2468	-141.306	-55.0076	-56.7372	-122.919	-68.623	-70.7532	-107.309	-80.1638	-86.3626	-142.718	-72.0127	-55.4593	-125.37	-85.4264	-66.9474	-107.219	-97.4025	-86.5647	-156.512	-88.9652	-30.9569	-140.209	-103.231	-41.9982	-126.544	-123.679	-51.554	-166.097	-94.6732	-14.1741	-153.011	-108.325	-22.6138	-142.526	-122.149	-32.3619	-191.618	-53.9271	-11.2203	-203.972	-34.1859	9.07616	-184.354	-14.6461	-17.4441	
62	0.516667	-179.454	12.4465	-7.01095	-166.361	14.4392	-34.729	-154.33	17.8857	-56.2939	-143.382	20.8089	-78.9018	-134.398	-37.9415	-59.6038	-115.807	-42.1479	-71.9588	-93.6595	-52.3732	-86.0225	-133.119	-54.3311	-54.3507	-109.829	-57.9488	-69.2209	-89.6466	-67.3576	-85.4627	-134.86	-75.2261	-31.0261	-117.227	-81.7786	-41.2975	-93.5835	-96.2962	-50.5159	-142.665	-81.5307	-11.5458	-124.874	-91.4534	-18.3826	-109.483	-104.254	-28.6875	-186.132	-52.0148	-8.58133	-201.38	-40.0166	10.0998	-190.055	-19.5099	-16.2485	
63	0.525	-192.026	9.72859	-9.25707	-185.366	17.3045	-36.2909	-175.218	22.9413	-61.445	-166.619	29.5799	-82.5165	-137.445	-22.397	-63.3334	-115.831	-21.6976	-79.3124	-95.7189	-22.4532	-94.8247	-128.292	-40.3276	-59.3592	-109.762	-36.6479	-73.5366	-85.7614	-34.9034	-94.5199	-126.442	-57.1067	-34.2139	-103.193	-59.9842	-46.5107	-80.0038	-66.9953	-54.9045	-129.739	-64.0237	-14.6773	-108.529	-70.7293	-20.7074	-90.6309	-75.8325	-34.6663	-175.807	-50.7112	-10.6035	-195.833	-49.9573	13.1915	-192.146	-23.4393	-19.8355	
64	0.533333	-194.229	5.86247	-10.938	-194.504	17.9251	-35.8945	-187.799	24.309	-69.0079	-180.526	30.8643	-84.9306	-140.68	-17.3652	-71.0067	-122.646	-13.1054	-89.4848	-108.467	-9.76492	-104.817	-133.124	-31.9936	-67.7169	-112.462	-28.8513	-85.1856	-92.41	-26.1976	-107.196	-121.036	-51.8863	-42.3801	-102.651	-51.6843	-54.9075	-78.9563	-53.0008	-69.1139	-122.756	-55.2412	-22.9623	-103.479	-60.3947	-31.981	-86.5065	-68.0478	-41.2996	-169.628	-50.9363	-12.3663	-187.161	-47.9621	11.0902	-190.213	-22.9247	-18.9279	
65	0.541667	-189.324	11.9597	-9.86687	-189.707	20.2766	-39.6745	-186.584	29.1374	-62.6463	-182.998	34.4803	-85.188	-151.508	-15.0688	-73.7093	-132.935	-14.6511	-96.132	-119.643	-15.3185	-118.123	-141.616	-31.3769	-74.8481	-124.06	-32.341	-94.1453	-110.163	-32.4426	-116.931	-129.118	-48.6603	-54.3012	-110.722	-53.1958	-69.1771	-91.2632	-59.3549	-84.0699	-125.922	-56.87	-34.2711	-109.812	-64.2436	-42.9917	-99.8783	-68.2645	-61.7077	-171.526	-46.837	-12.9728	-185.072	-47.5415	8.55826	-190.369	-21.1228	-17.1873	
66	0.55	-171.795	24.8428	-7.12913	-172.689	35.4311	-32.8263	-169.069	40.3461	-61.9086	-166.627	48.3903	-82.0735	-157.487	-8.31457	-76.4695	-146.122	-11.9765	-101.104	-137.452	-16.0711	-125.211	-155.453	-30.0794	-80.4459	-146.065	-28.2146	-99.3759	-134.802	-33.9548	-130.73	-148.457	-51.6151	-62.5532	-137.77	-61.8714	-80.1006	-125.684	-67.7813	-99.3309	-148.731	-61.7089	-39.4841	-137.587	-68.623	-57.3001	-130.25	-81.0418	-74.8712	-181.495	-36.3189	-15.934	-188.318	-33.1354	8.48064	-187.907	-4.20715	-15.485	
67	0.558333	-147.491	29.929	-5.257	-144.119	39.8457	-29.3932	-142.105	49.0288	-59.3599	-138.571	51.5289	-80.6432	-157.453	-2.00884	-77.3289	-151.436	-4.12766	-101.946	-150.699	-6.95993	-126.683	-166.192	-19.0381	-80.396	-160.822	-21.5821	-105.697	-158.77	-25.0823	-133.544	-169.389	-42.5131	-66.1186	-165.273	-54.0773	-88.9097	-161.395	-63.894	-110.778	-170.884	-55.6956	-48.9012	-168.07	-65.5907	-67.109	-166.263	-73.3975	-88.5427	-186.482	-20.3878	-16.3949	-186.599	-14.8071	8.26606	-174.537	11.3068	-13.5318	
68	0.566667	-127.842	27.066	-3.17279	-122.272	38.9716	-28.1037	-120.07	45.5393	-53.8841	-114.116	53.1005	-76.3219	-154.893	9.16885	-79.6369	-155.433	6.76513	-106.116	-159.238	3.67167	-126.585	-172.333	-2.81501	-79.9548	-170.893	-6.27765	-102.831	-170.323	-4.18438	-132.957	-181.849	-23.9946	-64.7936	-186.062	-35.234	-87.2427	-191.585	-46.4562	-108.176	-188.941	-40.2116	-47.1657	-190.027	-46.439	-67.6212	-193.462	-51.9134	-87.4774	-184.007	-4.08463	-17.6564	-184.314	-0.341036	12.3379	-161.781	18.9367	-11.6215	
69	0.575	-116.572	18.8858	-1.52609	-108.337	32.0507	-29.0829	-101.68	41.7376	-54.9102	-93.8396	46.2333	-73.9461	-145.183	16.7505	-79.2515	-149.312	13.3531	-104.921	-154.434	13.1647	-126.276	-168.555	7.80245	-81.1258	-169.573	6.58673	-101.757	-170.369	9.70029	-134.193	-186.656	-12.8491	-62.8685	-194.187	-19.2048	-82.4084	-200.013	-26.4201	-107.294	-194.413	-23.771	-46.7555	-197.939	-29.2621	-65.2755	-207.146	-34.4639	-81.7399	-178.618	8.46837	-11.371	-174.227	9.52129	18.2322	-148.794	23.8161	-8.83588	
70	0.583333	-101.798	12.4433	-2.67497	-95.4545	18.791	-27.6403	-84.0894	27.7552	-55.2674	-76.4783	32.0605	-75.3	-133.48	14.5041	-79.2636	-133.875	12.805	-100.223	-143.617	12.1706	-128.318	-153.755	10.8113	-78.727	-157.993	8.30165	-102.151	-155.669	11.4601	-132.39	-180.401	-4.45161	-61.8577	-188.005	-10.6618	-87.1823	-199.762	-17.8147	-110.666	-191.208	-14.3755	-47.1175	-198.872	-20.842	-60.9912	-205.398	-23.2346	-85.1642	-168.608	14.0844	-14.1448	-158.055	16.0373	15.2727	-133.766	23.0622	-8.74192	
71	0.591667	-93.7917	4.02275	-6.40301	-80.8197	7.04426	-26.4066	-73.8216	11.0437	-55.5701	-61.8463	12.8468	-76.0702	-128.251	5.6077	-79.4494	-127.767	2.87659	-105.069	-133.232	2.45505	-130.062	-144.837	7.42195	-79.6523	-144.544	3.02888	-103.99	-146.367	5.14028	-136.462	-170.862	-4.03365	-66.6074	-179.727	-8.87752	-82.9909	-193.605	-15.77	-110.605	-182.618	-10.0101	-43.3362	-191.334	-15.8227	-64.0046	-201.123	-16.4397	-85.4843	-157.339	15.4459	-17.5236	-150.149	18.4617	12.5152	-119.669	19.8391	-13.1039	
72	0.6	-89.1186	-3.12797	-2.41696	-78.5963	-1.65402	-27.8085	-66.7106	0.920403	-55.9467	-61.7623	-0.750987	-77.1656	-124.369	-0.0142779	-80.3192	-126.457	-3.84799	-103.182	-128.166	-5.87963	-127.028	-144.433	1.56007	-82.7826	-146.704	-3.58527	-106.926	-146.427	-3.7402	-134.19	-169.971	-4.86683	-65.396	-178.614	-10.1867	-86.6904	-189.555	-16.7372	-110.858	-177.557	-8.2771	-45.5011	-190.302	-13.9379	-62.5501	-203.137	-14.917	-82.3225	-153.637	17.0299	-15.2982	-143.657	19.9231	14.0551	-117.691	16.1895	-11.3088	
73	0.608333	-93.0419	-4.15374	-0.824113	-84.3399	-2.52592	-29.1828	-71.7679	-2.1014	-58.38	-60.6303	-5.0858	-74.3304	-124	-1.73523	-77.4994	-124.917	-6.35885	-103.509	-133.47	-8.95667	-128.219	-142.987	0.779676	-79.6091	-147.216	-4.5074	-102.06	-149.273	-6.3982	-135.837	-169.175	-3.78291	-63.2142	-180.202	-11.8626	-86.5408	-193.772	-18.3608	-108.866	-182.008	-7.64823	-47.5889	-194.879	-13.6216	-61.9915	-201.648	-17.1743	-84.6131	-152.059	16.0263	-17.8206	-150.469	19.4564	11.516	-120.192	15.3769	-12.4278	
